<svg xmlns="http://www.w3.org/2000/svg" xmlns:i="http://ns.adobe.com/AdobeIllustrator/10.0/" version="1.1" viewBox="0 0 316.03 72.79">
  <defs>
    <style>
      .cls-1 {
        fill: transparent;
      }

      .cls-2 {
        fill: #fff;
      }
    </style>
  </defs>
  
  <g>
    <g id="_Слой_1" data-name="Слой_1">
      <rect class="cls-1" width="316.03" height="72.79"/>
      <g>
        <g>
          <path class="cls-2" d="M108.3,40.74l-9.08-21.64h6.27l4.33,12.11c.04.13.12.44.24.92s.28,1.15.48,1.97c.16-.66.31-1.26.44-1.79.14-.53.24-.9.31-1.11l4.3-12.11h6.27l-9.08,21.64h-4.49Z"/>
          <path class="cls-2" d="M124.6,40.74v-21.64h13.26v4.75h-7.51v3.75h7.08v4.64h-7.08v3.65h7.51v4.85h-13.26Z"/>
          <path class="cls-2" d="M142.73,40.74v-21.64h6.17c2.41,0,4.1.11,5.05.33.95.22,1.77.59,2.46,1.12.78.59,1.38,1.35,1.8,2.26.42.92.63,1.93.63,3.03,0,1.68-.41,3.04-1.23,4.09-.82,1.05-2.02,1.75-3.6,2.09l5.9,8.72h-6.67l-4.97-8.47v8.47h-5.53ZM148.26,29.32h1.09c1.27,0,2.2-.22,2.79-.65.59-.43.88-1.11.88-2.04,0-1.08-.27-1.86-.82-2.31-.55-.46-1.47-.69-2.76-.69h-1.18v5.69Z"/>
          <path class="cls-2" d="M166.23,40.74v-16.53h-4.85v-5.12h15.6v5.12h-4.85v16.53h-5.9Z"/>
          <path class="cls-2" d="M180.98,40.74v-21.64h5.96v21.64h-5.96Z"/>
          <path class="cls-2" d="M217.49,40.74h-5.51l-1.27-9.36c-.09-.66-.17-1.39-.24-2.2-.07-.81-.14-1.69-.2-2.65-.14.92-.41,2.06-.81,3.43-.09.29-.15.5-.19.64l-2.94,10.14h-3.93l-2.94-10.14c-.04-.14-.1-.35-.18-.64-.41-1.37-.69-2.51-.81-3.42-.06.82-.13,1.63-.21,2.43-.08.8-.17,1.6-.28,2.4l-1.27,9.36h-5.48l3.34-21.64h5.84l3.27,11.16c.02.08.06.21.12.38.31,1,.5,1.85.58,2.56.04-.38.11-.81.22-1.28s.26-1.03.44-1.69l3.3-11.13h5.85l3.33,21.64Z"/>
          <path class="cls-2" d="M227.17,40.74h-5.53v-21.64h6.16c2.42,0,4.11.12,5.09.35.98.24,1.8.64,2.48,1.21.8.66,1.41,1.49,1.83,2.48.42.99.63,2.09.63,3.3,0,1.29-.21,2.43-.62,3.41-.41.98-1.03,1.79-1.83,2.42-.61.47-1.33.81-2.16,1.02-.83.21-2.15.31-3.98.31h-2.07v7.14ZM227.17,28.84h1.12c1.42,0,2.41-.19,2.97-.58.56-.39.84-1.05.84-1.99s-.28-1.55-.83-1.94c-.55-.38-1.53-.58-2.93-.58h-1.18v5.09Z"/>
          <path class="cls-2" d="M237.75,40.74l7.47-21.64h7.39l7.48,21.64h-5.87l-1.09-3.87h-8.38l-1.12,3.87h-5.87ZM246.01,32.65h5.87l-2.2-7.14c-.07-.22-.16-.57-.28-1.05s-.27-1.1-.46-1.86c-.13.53-.25,1.04-.38,1.52-.12.48-.25.95-.38,1.39l-2.17,7.14Z"/>
          <path class="cls-2" d="M278.28,19.93v6.45c-.81-.9-1.61-1.55-2.42-1.97-.8-.42-1.66-.63-2.58-.63-1.7,0-3.07.58-4.12,1.74s-1.57,2.67-1.57,4.53c0,1.73.53,3.17,1.6,4.32s2.43,1.71,4.09,1.71c.92,0,1.78-.21,2.58-.63.8-.42,1.61-1.08,2.42-1.99v6.46c-.94.45-1.87.79-2.79,1.02-.93.23-1.86.34-2.81.34-1.18,0-2.27-.14-3.27-.42s-1.92-.71-2.76-1.28c-1.62-1.08-2.85-2.45-3.7-4.1-.85-1.65-1.27-3.5-1.27-5.56,0-1.66.27-3.16.81-4.52.54-1.35,1.35-2.58,2.43-3.69,1.03-1.05,2.18-1.84,3.47-2.37,1.29-.52,2.72-.78,4.3-.78.95,0,1.88.11,2.81.34.93.23,1.86.57,2.79,1.02Z"/>
          <path class="cls-2" d="M285.69,40.74v-16.53h-4.85v-5.12h15.6v5.12h-4.85v16.53h-5.9Z"/>
        </g>
        <g>
          <path class="cls-2" d="M105.96,46.62h.82l3.68,8.25h-1.2l-1.09-2.43h-3.5l-1.02,2.43h-1.21l3.52-8.25ZM107.69,51.39l-1.32-2.97-1.23,2.97h2.55Z"/>
          <path class="cls-2" d="M114.94,46.66h1.07v8.2h-2.28c-.8,0-1.44-.25-1.91-.76-.48-.5-.71-1.18-.71-2.03,0-.79.25-1.45.75-1.96.5-.51,1.14-.77,1.91-.77.36,0,.75.08,1.17.23v-2.91ZM114.94,53.95v-3.42c-.33-.17-.67-.25-1.01-.25-.53,0-.96.17-1.27.52-.31.35-.47.82-.47,1.41,0,.56.14.98.41,1.29.16.18.34.3.52.36.18.06.51.09.99.09h.83Z"/>
          <path class="cls-2" d="M120.89,49.46h1.16l-2.39,5.49h-.36l-2.44-5.49h1.17l1.46,3.32,1.4-3.32Z"/>
          <path class="cls-2" d="M123.52,47.19c.18,0,.33.06.45.18.13.12.19.27.19.45s-.06.32-.19.45c-.13.13-.28.19-.45.19-.16,0-.31-.06-.43-.19-.13-.13-.19-.27-.19-.44s.06-.31.19-.44c.13-.13.27-.19.43-.19ZM122.99,49.46h1.07v5.4h-1.07v-5.4Z"/>
          <path class="cls-2" d="M125.46,54.48v-1.15c.3.21.61.38.92.51s.58.2.8.2.41-.05.58-.16c.16-.11.24-.24.24-.39s-.05-.29-.16-.39c-.1-.1-.33-.25-.67-.45-.69-.38-1.14-.71-1.35-.98-.21-.27-.32-.57-.32-.89,0-.41.16-.75.48-1.02.32-.26.74-.39,1.25-.39s1.07.15,1.63.45v1.06c-.63-.38-1.15-.58-1.56-.58-.21,0-.38.04-.5.13-.13.09-.19.2-.19.35,0,.13.06.25.17.36.12.11.32.25.61.41l.38.22c.9.51,1.35,1.07,1.35,1.69,0,.44-.17.8-.52,1.09-.35.28-.79.43-1.34.43-.32,0-.61-.03-.86-.1-.25-.07-.57-.19-.94-.38Z"/>
          <path class="cls-2" d="M133.05,49.45c.82,0,1.51.26,2.05.8.54.53.82,1.2.82,2s-.28,1.43-.83,1.94c-.55.51-1.25.77-2.08.77s-1.49-.26-2.03-.78c-.54-.52-.82-1.18-.82-1.96s.28-1.45.82-1.98,1.24-.79,2.07-.79ZM132.99,50.41c-.51,0-.93.17-1.26.5-.33.34-.49.77-.49,1.29s.17.94.5,1.26.77.49,1.3.49.95-.17,1.29-.5c.33-.33.5-.75.5-1.27s-.17-.94-.52-1.27c-.35-.34-.79-.5-1.31-.5Z"/>
          <path class="cls-2" d="M138.37,49.46v1.24l.06-.09c.52-.83,1.03-1.25,1.55-1.25.4,0,.82.2,1.26.61l-.56.94c-.37-.35-.72-.53-1.03-.53-.34,0-.64.16-.9.49-.25.33-.38.72-.38,1.17v2.82h-1.07v-5.4h1.07Z"/>
          <path class="cls-2" d="M145.78,49.46h1.2l-3.83,8.15h-1.19l1.83-3.91-2.09-4.24h1.22l1.46,3.05,1.4-3.05Z"/>
          <path class="cls-2" d="M156.51,54.86l-.95-1.12c-.08.08-.22.2-.42.36h-.01c-.28.24-.62.44-1.03.61s-.79.25-1.15.25c-.57,0-1.05-.18-1.45-.55-.4-.37-.59-.82-.59-1.35,0-.38.1-.73.29-1.04s.51-.62.95-.94l.02-.02c.26-.19.48-.34.67-.44-.62-.66-.93-1.3-.93-1.9,0-.56.19-1.01.57-1.36.38-.35.87-.52,1.48-.52s1.08.17,1.47.51c.38.34.57.78.57,1.3,0,.72-.48,1.41-1.44,2.09l-.08.06,1.16,1.32c.34-.37.63-.81.88-1.32h1.17c-.28.73-.73,1.45-1.34,2.15l1.66,1.92h-1.49ZM154.56,53.17l.26-.24-1.33-1.54-.52.36c-.61.41-.92.83-.92,1.25,0,.23.1.43.3.59.2.16.44.25.72.25.22,0,.47-.06.74-.19.28-.13.52-.29.74-.49ZM153.8,50l.45-.32c.42-.29.63-.64.63-1.02,0-.24-.09-.44-.26-.6-.17-.16-.39-.24-.66-.24s-.47.07-.64.22c-.17.15-.25.33-.25.56s.07.45.2.7c.13.25.31.49.54.7Z"/>
          <path class="cls-2" d="M162.56,46.66h1.17v8.2h-1.17v-8.2Z"/>
          <path class="cls-2" d="M169.95,50.94v3.92h-1.07v-3.01c0-.6-.08-1.02-.24-1.25s-.44-.36-.84-.36c-.22,0-.43.05-.61.15-.19.1-.4.28-.64.54v3.92h-1.07v-5.4h1.07v.71c.54-.54,1.08-.82,1.6-.82.69,0,1.22.33,1.59.97.57-.66,1.17-.99,1.79-.99.52,0,.96.19,1.29.58.34.38.51.97.51,1.76v3.19h-1.07v-3.2c0-.45-.09-.79-.28-1.03-.18-.24-.45-.36-.79-.36-.44,0-.85.22-1.24.67Z"/>
          <path class="cls-2" d="M174.84,57.62v-8.15h1.87c.96,0,1.7.24,2.24.72.53.48.8,1.14.8,2,0,.81-.25,1.48-.75,2-.5.52-1.14.78-1.92.78-.34,0-.72-.08-1.14-.23v2.89h-1.09ZM176.69,50.46h-.76v3.32c.33.17.67.25,1.03.25.5,0,.91-.17,1.23-.52s.48-.8.48-1.34c0-.35-.08-.66-.23-.93-.15-.27-.36-.47-.61-.59-.26-.12-.64-.19-1.14-.19Z"/>
          <path class="cls-2" d="M184.44,51.62v2.29c0,.18.06.28.19.28s.33-.1.6-.29v.65c-.24.16-.44.26-.58.32-.15.06-.3.09-.46.09-.46,0-.73-.18-.81-.54-.45.35-.94.53-1.45.53-.38,0-.69-.12-.94-.37-.25-.25-.38-.56-.38-.94,0-.34.12-.64.37-.91.24-.27.59-.48,1.04-.64l1.37-.47v-.29c0-.65-.32-.97-.97-.97-.58,0-1.15.3-1.7.9v-1.17c.41-.49,1.01-.73,1.79-.73.58,0,1.05.15,1.4.46.12.1.22.23.32.39s.15.32.18.49c.03.16.04.47.04.92ZM183.39,53.79v-1.6l-.72.28c-.36.14-.62.29-.77.44-.15.15-.23.33-.23.55s.07.41.21.55.33.21.56.21c.34,0,.66-.14.94-.42Z"/>
          <path class="cls-2" d="M190.34,53.6v1.06c-.54.2-1.06.3-1.57.3-.85,0-1.52-.25-2.02-.75-.5-.5-.75-1.17-.75-2.01s.24-1.53.73-2.05c.49-.52,1.13-.78,1.93-.78.28,0,.53.03.75.08s.49.15.82.3v1.14c-.54-.34-1.04-.52-1.5-.52s-.88.17-1.19.51c-.31.34-.46.77-.46,1.29,0,.55.17.99.5,1.32s.79.49,1.35.49c.41,0,.88-.12,1.41-.36Z"/>
          <path class="cls-2" d="M190.92,50.32l2.01-1.97v1.12h1.71v.96h-1.71v2.64c0,.62.26.93.77.93.38,0,.79-.13,1.22-.38v1c-.41.23-.86.35-1.34.35s-.9-.14-1.22-.43c-.1-.09-.19-.18-.25-.29-.07-.11-.12-.25-.17-.42-.05-.17-.07-.51-.07-.99v-2.39h-.94v-.11Z"/>
          <path class="cls-2" d="M199.42,46.66h1.17v8.2h-1.17v-8.2Z"/>
          <path class="cls-2" d="M203.46,49.46v.69c.48-.53,1.02-.79,1.63-.79.34,0,.65.09.94.26.29.17.51.41.66.72.15.3.23.78.23,1.44v3.09h-1.07v-3.08c0-.55-.08-.95-.25-1.18s-.45-.36-.85-.36c-.5,0-.93.25-1.29.76v3.86h-1.09v-5.4h1.09Z"/>
          <path class="cls-2" d="M211.64,49.46h1.16l-2.39,5.49h-.36l-2.44-5.49h1.17l1.46,3.32,1.4-3.32Z"/>
          <path class="cls-2" d="M218.08,52.26h-3.8c.03.52.2.93.52,1.23.32.31.73.46,1.24.46.7,0,1.35-.22,1.95-.66v1.04c-.33.22-.65.38-.98.47s-.7.14-1.14.14c-.6,0-1.08-.12-1.44-.37-.37-.25-.66-.58-.88-1s-.33-.9-.33-1.45c0-.82.23-1.49.7-2,.47-.51,1.07-.77,1.81-.77s1.29.25,1.71.75c.43.5.64,1.17.64,2.01v.13ZM214.31,51.62h2.72c-.03-.43-.15-.75-.38-.99-.23-.23-.53-.35-.92-.35s-.7.12-.94.35-.4.56-.48.99Z"/>
          <path class="cls-2" d="M219.1,54.48v-1.15c.3.21.61.38.92.51s.58.2.8.2.41-.05.57-.16c.16-.11.24-.24.24-.39s-.05-.29-.16-.39c-.1-.1-.33-.25-.67-.45-.69-.38-1.14-.71-1.35-.98-.21-.27-.32-.57-.32-.89,0-.41.16-.75.48-1.02.32-.26.74-.39,1.25-.39s1.07.15,1.63.45v1.06c-.63-.38-1.15-.58-1.56-.58-.21,0-.37.04-.5.13-.13.09-.19.2-.19.35,0,.13.06.25.17.36.12.11.32.25.61.41l.38.22c.9.51,1.35,1.07,1.35,1.69,0,.44-.17.8-.52,1.09s-.79.43-1.34.43c-.32,0-.61-.03-.86-.1-.25-.07-.57-.19-.94-.38Z"/>
          <path class="cls-2" d="M223.35,50.32l2.01-1.97v1.12h1.71v.96h-1.71v2.64c0,.62.26.93.77.93.38,0,.79-.13,1.22-.38v1c-.41.23-.86.35-1.34.35s-.9-.14-1.22-.43c-.1-.09-.19-.18-.25-.29-.07-.11-.12-.25-.17-.42-.05-.17-.07-.51-.07-.99v-2.39h-.94v-.11Z"/>
          <path class="cls-2" d="M232.65,50.94v3.92h-1.07v-3.01c0-.6-.08-1.02-.24-1.25s-.44-.36-.84-.36c-.22,0-.43.05-.61.15-.19.1-.4.28-.64.54v3.92h-1.07v-5.4h1.07v.71c.54-.54,1.08-.82,1.6-.82.68,0,1.22.33,1.59.97.57-.66,1.17-.99,1.79-.99.52,0,.96.19,1.29.58s.51.97.51,1.76v3.19h-1.07v-3.2c0-.45-.09-.79-.28-1.03-.18-.24-.45-.36-.79-.36-.44,0-.85.22-1.24.67Z"/>
          <path class="cls-2" d="M242.22,52.26h-3.8c.03.52.2.93.52,1.23.32.31.73.46,1.24.46.7,0,1.35-.22,1.95-.66v1.04c-.33.22-.65.38-.98.47s-.7.14-1.14.14c-.59,0-1.08-.12-1.44-.37-.37-.25-.66-.58-.88-1-.22-.42-.33-.9-.33-1.45,0-.82.23-1.49.7-2s1.07-.77,1.81-.77,1.29.25,1.71.75c.43.5.64,1.17.64,2.01v.13ZM238.44,51.62h2.72c-.03-.43-.16-.75-.38-.99s-.53-.35-.92-.35-.7.12-.94.35c-.25.23-.4.56-.48.99Z"/>
          <path class="cls-2" d="M244.56,49.46v.69c.48-.53,1.02-.79,1.63-.79.34,0,.65.09.94.26.29.17.51.41.66.72.15.3.23.78.23,1.44v3.09h-1.07v-3.08c0-.55-.08-.95-.25-1.18s-.45-.36-.85-.36c-.5,0-.93.25-1.29.76v3.86h-1.09v-5.4h1.09Z"/>
          <path class="cls-2" d="M248.87,50.32l2.01-1.97v1.12h1.71v.96h-1.71v2.64c0,.62.26.93.77.93.38,0,.79-.13,1.22-.38v1c-.41.23-.86.35-1.34.35s-.9-.14-1.22-.43c-.1-.09-.19-.18-.25-.29-.07-.11-.12-.25-.17-.42-.05-.17-.07-.51-.07-.99v-2.39h-.94v-.11Z"/>
          <path class="cls-2" d="M259.39,51.43l-.89-.54c-.56-.34-.96-.68-1.19-1.01-.24-.33-.35-.71-.35-1.14,0-.65.22-1.17.67-1.57.45-.4,1.03-.6,1.75-.6s1.31.19,1.88.58v1.33c-.59-.57-1.23-.85-1.91-.85-.38,0-.7.09-.94.27-.25.18-.37.4-.37.68,0,.25.09.48.27.69.18.21.47.44.88.68l.9.53c1,.6,1.5,1.36,1.5,2.28,0,.66-.22,1.19-.66,1.6-.44.41-1.01.62-1.72.62-.81,0-1.55-.25-2.21-.75v-1.49c.63.8,1.37,1.2,2.2,1.2.37,0,.67-.1.92-.31s.37-.46.37-.77c0-.5-.36-.97-1.08-1.42Z"/>
          <path class="cls-2" d="M267.44,52.26h-3.8c.03.52.2.93.52,1.23.32.31.73.46,1.24.46.7,0,1.35-.22,1.95-.66v1.04c-.33.22-.65.38-.98.47s-.7.14-1.14.14c-.6,0-1.08-.12-1.44-.37-.37-.25-.66-.58-.88-1s-.33-.9-.33-1.45c0-.82.23-1.49.7-2,.47-.51,1.07-.77,1.81-.77s1.29.25,1.71.75c.43.5.64,1.17.64,2.01v.13ZM263.66,51.62h2.72c-.03-.43-.15-.75-.38-.99-.23-.23-.53-.35-.92-.35s-.7.12-.94.35-.4.56-.48.99Z"/>
          <path class="cls-2" d="M269.86,49.46v1.24l.06-.09c.52-.83,1.03-1.25,1.55-1.25.4,0,.82.2,1.26.61l-.56.94c-.37-.35-.72-.53-1.03-.53-.34,0-.64.16-.9.49-.25.33-.38.72-.38,1.17v2.82h-1.07v-5.4h1.07Z"/>
          <path class="cls-2" d="M277.26,49.46h1.16l-2.39,5.49h-.36l-2.44-5.49h1.17l1.46,3.32,1.4-3.32Z"/>
          <path class="cls-2" d="M279.89,47.19c.18,0,.33.06.45.18.13.12.19.27.19.45s-.06.32-.19.45c-.13.13-.28.19-.45.19-.16,0-.31-.06-.43-.19-.13-.13-.19-.27-.19-.44s.06-.31.19-.44c.13-.13.27-.19.43-.19ZM279.36,49.46h1.07v5.4h-1.07v-5.4Z"/>
          <path class="cls-2" d="M286.14,53.6v1.06c-.54.2-1.06.3-1.57.3-.85,0-1.52-.25-2.02-.75-.5-.5-.75-1.17-.75-2.01s.24-1.53.73-2.05c.49-.52,1.13-.78,1.93-.78.28,0,.53.03.75.08.22.05.49.15.82.3v1.14c-.54-.34-1.04-.52-1.5-.52s-.88.17-1.19.51c-.31.34-.46.77-.46,1.29,0,.55.17.99.5,1.32s.79.49,1.35.49c.41,0,.88-.12,1.41-.36Z"/>
          <path class="cls-2" d="M292.08,52.26h-3.8c.03.52.2.93.52,1.23.32.31.73.46,1.24.46.7,0,1.35-.22,1.95-.66v1.04c-.33.22-.65.38-.98.47s-.7.14-1.14.14c-.59,0-1.08-.12-1.44-.37-.37-.25-.66-.58-.88-1-.22-.42-.33-.9-.33-1.45,0-.82.23-1.49.7-2s1.07-.77,1.81-.77,1.29.25,1.71.75c.43.5.64,1.17.64,2.01v.13ZM288.31,51.62h2.72c-.03-.43-.16-.75-.38-.99s-.53-.35-.92-.35-.7.12-.94.35c-.25.23-.4.56-.48.99Z"/>
          <path class="cls-2" d="M293.09,54.48v-1.15c.3.21.61.38.92.51s.58.2.8.2.41-.05.58-.16c.16-.11.24-.24.24-.39s-.05-.29-.16-.39c-.1-.1-.33-.25-.67-.45-.69-.38-1.14-.71-1.35-.98-.21-.27-.32-.57-.32-.89,0-.41.16-.75.48-1.02.32-.26.74-.39,1.25-.39s1.07.15,1.63.45v1.06c-.63-.38-1.15-.58-1.56-.58-.21,0-.38.04-.5.13-.13.09-.19.2-.19.35,0,.13.06.25.17.36.12.11.32.25.61.41l.38.22c.9.51,1.35,1.07,1.35,1.69,0,.44-.17.8-.52,1.09-.35.28-.79.43-1.34.43-.32,0-.61-.03-.86-.1-.25-.07-.57-.19-.94-.38Z"/>
        </g>
        <g>
          <polygon class="cls-2" points="42.9 37.98 31.62 47.44 20.33 37.98 20.33 47.66 31.62 57.1 31.62 57.12 31.62 57.12 31.62 57.12 31.62 57.1 42.9 47.66 42.9 37.98"/>
          <polygon class="cls-2" points="65.46 37.98 54.18 47.44 42.9 37.98 42.9 47.66 54.18 57.1 54.18 57.12 54.18 57.12 54.18 57.12 54.18 57.1 65.46 47.66 65.46 37.98"/>
          <polygon class="cls-2" points="88.02 37.98 76.74 47.44 65.46 37.98 65.46 47.66 76.74 57.1 76.74 57.12 76.74 57.12 76.74 57.12 76.74 57.1 88.02 47.66 88.02 37.98"/>
          <polygon class="cls-2" points="20.33 30.56 31.62 21.09 42.9 30.56 42.9 20.88 31.62 11.43 31.62 11.41 31.62 11.41 31.62 11.41 31.62 11.43 20.33 20.88 20.33 30.56"/>
          <polygon class="cls-2" points="42.9 30.56 54.18 21.09 65.46 30.56 65.46 20.88 54.18 11.43 54.18 11.41 54.18 11.41 54.18 11.41 54.18 11.43 42.9 20.88 42.9 30.56"/>
          <polygon class="cls-2" points="65.46 30.56 76.74 21.09 88.02 30.56 88.02 20.88 76.74 11.43 76.74 11.41 76.74 11.41 76.74 11.41 76.74 11.43 65.46 20.88 65.46 30.56"/>
          <g>
            <polygon class="cls-2" points="65.46 31.17 54.18 40.62 42.9 31.17 31.62 40.62 19.94 30.85 19.94 20.14 31.62 29.94 42.9 20.47 54.18 29.94 65.46 20.47 76.74 29.94 88.41 20.14 88.41 30.85 76.74 40.62 65.46 31.17" style="&#10;    /* outline-width: 10px; */&#10;"/>
            <path d="M88.02,20.98v9.68l-11.28,9.45-11.28-9.45-11.28,9.45-11.28-9.45-11.28,9.45-11.28-9.45v-9.68l11.28,9.47,11.28-9.47,11.28,9.47,11.28-9.47,11.28,9.47,11.28-9.47M88.8,19.3l-1.29,1.08-10.78,9.04-10.78-9.04-.5-.42-.5.42-10.78,9.04-10.78-9.04-.5-.42-.5.42-10.78,9.04-10.78-9.04-1.29-1.08v11.73l.28.23,11.28,9.45.5.42.5-.42,10.78-9.03,10.78,9.03.5.42.5-.42,10.78-9.03,10.78,9.03.5.42.5-.42,11.28-9.45.28-.23v-11.73h0Z"/>
          </g>
        </g>
      </g>
    </g>
  </g>
  
</svg>